<?xml version="1.0" encoding="utf-8"?>
<!-- Generator: Adobe Illustrator 23.0.3, SVG Export Plug-In . SVG Version: 6.00 Build 0)  -->
<svg version="1.1" xmlns="http://www.w3.org/2000/svg" xmlns:xlink="http://www.w3.org/1999/xlink" x="0px" y="0px"
	 viewBox="0 0 600 600" style="enable-background:new 0 0 600 600;" xml:space="preserve">
<style type="text/css">
	.st0{fill:#21120F;}
	.st1{fill:#FEEFE9;}
	.st2{fill:none;stroke:#000000;stroke-width:2;stroke-linecap:round;stroke-linejoin:round;stroke-miterlimit:10;}
	.st3{fill:#DD90BE;}
	.st4{fill:#6E4E3D;}
	.st5{fill:#80D0D5;}
	.st6{stroke:#000000;stroke-linecap:round;stroke-linejoin:round;stroke-miterlimit:10;}
	.st7{fill:#FDDCCA;}
	.st8{fill:#946951;}
	.st9{display:none;}
	.st10{display:inline;}
	.st11{fill:#F2D79C;}
	.st12{fill:#C4B84E;}
	.st13{fill:#FFFFFF;stroke:#000000;stroke-miterlimit:10;}
	.st14{fill:#FEF5A3;}
	.st15{fill:#FFFCE8;}
	.st16{fill:#A5D9EF;}
	.st17{fill:#C0AC7E;}
	.st18{display:inline;fill:#FEE9DC;}
	.st19{display:inline;fill:#FEDAC2;}
	.st20{display:inline;fill:none;stroke:#000000;stroke-width:2;stroke-linecap:round;stroke-linejoin:round;stroke-miterlimit:10;}
	.st21{display:inline;fill:#F15E71;}
	.st22{display:inline;fill:#F15F74;}
	.st23{fill:#51BC83;}
	.st24{display:inline;fill:#BB3C5C;}
	.st25{fill:#F59BB8;}
	.st26{fill:#DE93C0;}
	.st27{fill:#AF9A84;}
	.st28{fill:#6D6B73;}
	.st29{fill:#EFCEE2;}
	.st30{fill:#8C7C6A;}
</style>
<g id="Layer_1">
	<g>
		<path class="st0" d="M367.16,419.19c-4.69,35.54,26.88,50.29,31.85,76.91c54.57,2.96,88.06-159.27,79.48-216.17"/>
		<path class="st0" d="M244.73,430.41c2.54,37.41-19.05,44.74-18.86,71.83c-53.01,13.29-116.76-139.6-119.17-197.1"/>
		<path class="st1" d="M127.94,301.49c0.9-12.16,32.19-78.79,87.46-95.45c55.27-16.66,154.78-31.07,193.95,12.61
			c39.17,43.67,57.63,100.86,58.08,116.62c0.45,15.76,7.99,55.25-58.08,99.51c-47.73,31.97-143.86,39.2-200.36,18.01
			c-32.42-12.16-66.68-38.72-65.29-78.79C145.05,335.26,127.94,301.49,127.94,301.49z"/>
		<path class="st2" d="M273.36,393.82c5.49,7.84,14.9,11.7,23.77,9.8c10.96-2.34,15.57-12.31,16.04-13.37"/>
		<path class="st3" d="M166.3,262.84c-0.86,3.43,29.29,0.72,29.27-0.69"/>
		<path class="st4" d="M493.92,226.87C443.49,85.18,370.84,75.48,283.39,79.69l-6.14,0.75c-87.31,6.52-160.7,34.33-187.14,171.86
			c-32.73,146.8,0.34,263.72,0.56,265.51c0.22,1.79,85,11.1,107.73-13.25c0,0-32.12-58.85-43.21-116.9
			c63-129.05,114.55-175.17,142.36-195.36c11.64-8.45,80.09,57.93,144.56,177.38c-5.07,79.68-12.31,120.17-12.31,120.17
			c20.97,20.97,87.06,24.02,87.06,22.21C516.85,510.26,544.36,368.56,493.92,226.87z"/>
		<path class="st3" d="M417.82,248.46"/>
		<path class="st3" d="M336.77,255.03"/>
		<path class="st3" d="M243.51,256.98"/>
		<g>
			
				<ellipse transform="matrix(0.9727 -0.2322 0.2322 0.9727 -71.4921 53.7395)" class="st5" cx="192.56" cy="330.6" rx="31.45" ry="36.82"/>
			<path d="M214.85,306.51c0,0-13.34-21.2-40.98-13.53c-12.84,3.85-30.79,28.53-30.79,28.53l17.22,5.58
				C160.29,327.1,171.69,283.55,214.85,306.51z"/>
		</g>
		<g>
			<path class="st6" d="M159.5,266.94l-14.42,24.33c9.23-7.81,26.94-28.09,65.94-12.34C217.25,281.44,198.98,251.21,159.5,266.94z"
				/>
		</g>
		<ellipse class="st7" cx="290.76" cy="370.85" rx="14.02" ry="6.84"/>
		<path class="st8" d="M343.56,171.75c-54.03-1.27-133.94-7.45-210.44-26.32c-0.55,0.57-1.08,1.16-1.63,1.73
			c-7.68,10.89-14.75,23.64-21.16,38.61c14.94,15.09,112.95,21.56,201.89,6.12c3.43-0.6,6.96-0.98,10.19-1.54
			c13.46-1.6,30.91-4.99,36.89-6.47c0,0,0.01,0,0.01,0c54.47-10.2,64.23-14.2,64.23-14.2S392.27,172.57,343.56,171.75z"/>
		<g>
			<ellipse class="st5" cx="383.18" cy="321.52" rx="33.21" ry="39.58"/>
			<path d="M355.66,299.42c0,0,10.49-22.56,39.28-21.54c13.44,0.75,36.73,20.35,36.73,20.35l-16.49,9.89
				C415.19,308.12,392.47,267.47,355.66,299.42z"/>
		</g>
		<g>
			<path class="st6" d="M411.42,255.35L429.79,276c-10.96-6.4-32.55-23.32-73.87-7.48C349.32,271.05,366.34,243.54,411.42,255.35z"
				/>
		</g>
	</g>
</g>
<g id="Layer_4" class="st9">
	<g class="st10">
		<path class="st11" d="M134.22,291.01c0.9-12.16,32.19-78.79,87.46-95.45s154.78-31.07,193.95,12.61s57.63,100.86,58.08,116.62
			s7.99,55.25-58.08,99.51c-47.73,31.97-143.86,39.2-200.36,18.01c-32.42-12.16-66.68-38.72-65.29-78.79
			C151.33,324.78,134.22,291.01,134.22,291.01z"/>
		<path class="st12" d="M241.31,185.58c-49.4,30.29-93.29,141.21-76.64,176.34c25.26,53.29,31.18,53.27,39.81,136.52
			c-56.55-10.33-89.55-95.83-98.84-278.85"/>
		<path class="st12" d="M351.12,179.23c33.4,15.89,73.69,106.29,70.05,143.84c-8.89,91.73,3.86,92.15,16.29,174.91
			c52.19-24.12,62.79-115.15,26.11-294.69"/>
		<line class="st13" x1="344.64" y1="136.98" x2="344.17" y2="162.34"/>
		<path class="st12" d="M114.73,427.76c-11.53,33.95-15.01,38.03-31.24,59.71c-50.25-21.5-8.49-181.79,24.38-229.03"/>
		<path class="st12" d="M485.25,423.11c11.92,33.81,15.45,37.86,31.93,59.35c49.99-22.08,6.38-181.88-27.03-228.73"/>
		<path class="st14" d="M341.62,185.58c0,0-73.15-6.35-108.79,14.2c-32.05,18.47-79.6,69.69-83.48,111.26
			c-8.04,86.12-4.39,105.6,1.72,192.96c-54.46-18.42-101.21-57.75-57.4-290.23c26.46-110.49,173.83-146.83,254.43-93.7
			c0,0,72.93-30.95,140.46,88.82c74.54,162.1-10.9,299.47-14.38,279.59C452.57,364.87,427.11,225.63,341.62,185.58z"/>
		<g>
			<path class="st15" d="M371,204.93c4.47,3.94,8.74,8.21,12.81,12.78c60.43-11.41,71.69-15.49,71.69-15.49
				S422.94,205.29,371,204.93z"/>
			<path class="st15" d="M109.9,174.6c-7.1,11.81-12.58,24.89-16.02,39.23c-0.95,5.06-1.85,9.99-2.72,14.87
				c19.02,6.45,53.9,10.53,95.6,10.94c15.07-17.2,32.17-31.67,46.27-39.81c1.76-1.01,3.61-1.96,5.54-2.85
				C198.1,192.38,154.46,185.29,109.9,174.6z"/>
		</g>
		<path class="st2" d="M279.63,383.35c5.49,7.84,14.9,11.7,23.77,9.8c10.96-2.34,15.57-12.31,16.04-13.37"/>
		<g>
			
				<ellipse transform="matrix(0.9727 -0.2322 0.2322 0.9727 -68.8894 54.9102)" class="st16" cx="198.84" cy="320.13" rx="31.45" ry="36.82"/>
			<path d="M221.12,296.04c0,0-13.34-21.2-40.98-13.53c-12.84,3.85-30.79,28.53-30.79,28.53l17.22,5.58
				C166.57,316.63,177.96,273.08,221.12,296.04z"/>
		</g>
		<g>
			<path class="st6" d="M165.78,256.47l-14.42,24.33c9.23-7.81,26.94-28.09,65.94-12.34C223.53,270.97,205.25,240.74,165.78,256.47z
				"/>
		</g>
		<g>
			<ellipse class="st16" cx="387.95" cy="311.05" rx="33.21" ry="39.58"/>
			<path d="M360.44,288.95c0,0,10.49-22.56,39.28-21.54c13.44,0.75,36.73,20.35,36.73,20.35l-15.52,9.31
				C420.93,297.07,397.24,257,360.44,288.95z"/>
		</g>
		<g>
			<path class="st6" d="M417.7,244.87l18.37,20.65c-10.96-6.4-32.55-23.32-73.87-7.48C355.59,260.58,372.62,233.07,417.7,244.87z"/>
		</g>
		<ellipse class="st17" cx="297.67" cy="363.51" rx="14.02" ry="6.84"/>
	</g>
</g>
<g id="Layer_3" class="st9">
	<path class="st18" d="M134.68,297.17c0.9-12.83,32.19-83.14,87.46-100.72s154.78-32.78,193.95,13.3s57.63,106.42,58.08,123.04
		s7.99,58.3-58.08,104.99c-47.73,33.73-143.86,41.36-200.36,19c-32.42-12.83-66.68-40.86-65.29-83.14
		C151.79,332.8,134.68,297.17,134.68,297.17z"/>
	<ellipse class="st19" cx="300" cy="372.63" rx="14.02" ry="6.84"/>
	<path class="st20" d="M280.09,398.5c5.49,7.84,14.9,11.7,23.77,9.8c10.96-2.34,15.57-12.31,16.04-13.37"/>
	<path class="st21" d="M197.18,255.25c0,0-39.61,49.08-41.64,77.44c-2.03,28.37,6.09,78.79,28.44,111.21s22.34,32.42,22.34,32.42
		s-78.2-6.75-102.07-29.27S52.96,307.03,197.18,255.25z"/>
	<path class="st22" d="M426,257.25c0,0,30.96,54.74,28.41,83.06s-18.58,76.81-45.66,105.26c-27.08,28.45-27.08,28.45-27.08,28.45
		s77.7,5.75,104.69-12.68C513.35,442.91,559.02,331.26,426,257.25z"/>
	<g class="st10">
		<g>
			
				<ellipse transform="matrix(0.9727 -0.2322 0.2322 0.9727 -72.3952 55.4315)" class="st23" cx="199.3" cy="335.28" rx="31.45" ry="36.82"/>
			<path d="M221.58,311.2c0,0-13.34-21.2-40.98-13.53c-12.84,3.85-30.79,28.53-30.79,28.53l17.22,5.58
				C167.03,331.78,178.42,288.23,221.58,311.2z"/>
		</g>
	</g>
	<g class="st10">
		<g>
			<ellipse class="st23" cx="388.41" cy="326.2" rx="33.21" ry="39.58"/>
			<path d="M360.9,304.1c0,0,10.49-22.56,39.28-21.54c13.44,0.75,36.73,20.35,36.73,20.35l-17.13,10.28
				C419.78,313.19,397.7,272.15,360.9,304.1z"/>
		</g>
	</g>
	<path class="st24" d="M346.54,185.77c0,0-11.59,26.72-44.26,47.99s-107.43,43.52-136.37,58.36c-28.94,14.84-54.14,64.8-46.68,89.54
		c0,0-64.16-77.98-16.55-171.47c22.87-72.22,154.24-154.02,237.79-95.65c0,0,81.06-30.44,151.08,101.14
		c56.94,178.58-37.65,203.58-37.65,202.09C453.89,416.29,473.03,332.69,346.54,185.77z"/>
	<g class="st10">
		<path class="st25" d="M318.32,212.9c3.56-0.65,7.21-1.07,10.56-1.7c7.52-8.25,12.45-15.89,15.14-20.58
			c-56.01-1.4-132.06-8.04-211.36-28.77c-10.7,11.68-19.89,24.85-25.62,37.16c-0.13,1.22-0.1,1.77-0.03,2.99
			C108.1,221.46,218.71,231.23,318.32,212.9z"/>
		<path class="st25" d="M350.81,190.77c3.93,4.65,8.11,9.71,11.75,14.22c60.51-11.88,71.15-16.5,71.15-16.5
			S401.3,191.67,350.81,190.77z"/>
	</g>
	<g class="st10">
		<path class="st6" d="M166.24,271.62l-14.42,24.33c9.23-7.81,26.94-28.09,65.94-12.34C223.99,286.13,205.71,255.9,166.24,271.62z"
			/>
	</g>
	<g class="st10">
		<path class="st6" d="M418.16,260.03l18.37,20.65c-10.96-6.4-32.55-23.32-73.87-7.48C356.05,275.73,373.08,248.22,418.16,260.03z"
			/>
	</g>
</g>
<g id="Layer_2" class="st9">
	<g class="st10">
		
			<ellipse transform="matrix(0.7071 -0.7071 0.7071 0.7071 -12.6043 120.1008)" class="st26" cx="138.67" cy="75.27" rx="67.31" ry="60.25"/>
		
			<ellipse transform="matrix(0.6291 -0.7773 0.7773 0.6291 110.5931 364.0839)" class="st26" cx="436.85" cy="66.14" rx="60.25" ry="67.31"/>
		<path class="st27" d="M134,283.68c0.9-12.16,32.19-78.79,87.46-95.45c55.27-16.66,154.78-31.07,193.95,12.61
			c39.17,43.67,57.63,100.86,58.08,116.62c0.45,15.76,7.99,55.25-58.08,99.51c-47.73,31.97-143.86,39.2-200.36,18.01
			c-32.42-12.16-66.68-38.72-65.29-78.79C151.11,317.45,134,283.68,134,283.68z"/>
		<path class="st13" d="M354.52,572.66"/>
		<path class="st2" d="M279.41,376.01c5.49,7.84,14.9,11.7,23.77,9.8c10.96-2.34,15.57-12.31,16.04-13.37"/>
		<g>
			<ellipse class="st28" cx="389.23" cy="303.72" rx="33.21" ry="39.58"/>
			<path d="M361.72,281.61c0,0,10.49-22.56,39.28-21.54c13.44,0.75,36.73,20.35,36.73,20.35l-16.49,9.89
				C421.24,290.32,398.52,249.67,361.72,281.61z"/>
		</g>
		<g>
			<path class="st6" d="M417.48,237.54l18.37,20.65c-10.96-6.4-32.55-23.32-73.87-7.48C355.37,253.25,372.4,225.73,417.48,237.54z"
				/>
		</g>
		<path class="st3" d="M496.19,209.58C445.76,67.89,376.9,57.68,289.45,61.88l-6.14,0.75C196,69.15,128.91,87.7,96.17,234.49
			c-32.73,146.8,25.33,352.63,25.55,354.41c0.22,1.79,65.44-9.31,83.69-32.69c3.55-4.55-30.92-67.61-44.17-186.37
			c-12.03-107.77,2.92-126.72,4.7-140.48c3.13,11.68,6.39,15.54,6.42,15.67c-0.86,3.43,29.29,0.72,29.27-0.69
			c0,0,38.27-2.3,45.78-6.93c0.12-0.07,0.2-18.78,0.7-23.27c0.66,5.8,1.46,25.04,1.46,25.04c0,3.22,47.05-6.77,47.05-6.77
			s46.04,7.73,46.21,4.82c0-0.07,0.13-1.17,0.32-3.02c15.98-0.39,51.54-5.59,51.54-5.59s28.8,7.39,29.2,2.04
			c0.01-0.13,0.25-1.51,0.58-4.04c10.95,23.04,22.75,62.28,23.7,125.26c1.8,119.48-23.29,197.05-19.21,201.13
			c20.97,20.97,87.06,24.02,87.06,22.21C516,573.42,546.62,351.27,496.19,209.58z"/>
		<g>
			
				<ellipse transform="matrix(0.9727 -0.2322 0.2322 0.9727 -67.193 54.659)" class="st28" cx="198.62" cy="312.8" rx="31.45" ry="36.82"/>
			<path d="M220.9,288.71c0,0-13.34-21.2-40.98-13.53c-12.84,3.85-30.79,28.53-30.79,28.53l17.22,5.58
				C166.35,309.29,177.74,265.75,220.9,288.71z"/>
		</g>
		<g>
			<path class="st6" d="M165.56,249.13l-14.42,24.33c9.23-7.81,26.94-28.09,65.94-12.34C223.31,263.64,205.03,233.41,165.56,249.13z
				"/>
		</g>
		
			<ellipse transform="matrix(0.3551 -0.9348 0.9348 0.3551 8.0496 139.9098)" class="st29" cx="105.43" cy="64.12" rx="33.37" ry="16.33"/>
		<ellipse class="st30" cx="296.81" cy="353.04" rx="14.02" ry="6.84"/>
		<path class="st29" d="M349.62,153.95c-54.03-1.27-133.94-7.45-210.44-26.32c-0.55,0.57-1.08,1.16-1.63,1.73
			c-7.68,10.89-14.75,23.64-21.16,38.61c14.94,15.09,112.95,21.56,201.89,6.12c3.43-0.6,6.96-0.98,10.19-1.54
			c13.46-1.6,30.91-4.99,36.89-6.47c0,0,0.01,0,0.01,0c54.47-10.2,64.23-14.2,64.23-14.2S398.33,154.76,349.62,153.95z"/>
		
			<ellipse transform="matrix(0.3551 -0.9348 0.9348 0.3551 216.3841 406.5206)" class="st29" cx="402.84" cy="46.42" rx="30.68" ry="12.61"/>
	</g>
</g>
</svg>
