<svg width="64" height="64" xmlns="http://www.w3.org/2000/svg">

 <g>
  <title>background</title>
  <rect fill="none" id="canvas_background" height="402" width="582" y="-1" x="-1"/>
 </g>
 <g>
  <title>Layer 1</title>
  <path opacity="0.2" id="svg_5" fill="#231F20" d="m49.5,22.333l-5,0c0,0 -1.445,0 -2.5,-2.667c-0.537,-1.357 -1.12,-2.666 -2.5,-2.666l-10,0c-1.38,0 -1.98,1.301 -2.5,2.667c-1.015,2.667 -2.5,2.667 -2.5,2.667l-2.5,0c0,-1.472 -1.12,-2.667 -2.5,-2.667l-2.5,0c-1.38,0 -2.5,1.195 -2.5,2.667c-1.38,0 -2.5,1.195 -2.5,2.667l0,21.333c0,1.471 1.12,2.666 2.5,2.666l35,0c1.38,0 2.5,-1.195 2.5,-2.667l0,-21.333c0,-1.472 -1.12,-2.667 -2.5,-2.667z"/>
  <path id="svg_7" fill="#4F5D73" d="m49.5,20l-5,0c0,0 -1.445,0.333 -2.5,-2.333c-0.537,-1.358 -1.12,-2.667 -2.5,-2.667l-10,0c-1.38,0 -1.98,1.301 -2.5,2.667c-1.015,2.666 -2.5,2.333 -2.5,2.333l-2.5,0c0,-1.472 -1.12,-2 -2.5,-2l-2.5,0c-1.38,0 -2.5,0.528 -2.5,2c-1.38,0 -2.5,1.528 -2.5,3l0,21.333c0,1.472 1.12,2.667 2.5,2.667l35,0c1.38,0 2.5,-1.195 2.5,-2.667l0,-21.333c0,-1.472 -1.12,-3 -2.5,-3z"/>
  <circle id="svg_9" r="9" fill="#77B3D4" cy="33" cx="34"/>
  <path opacity="0.2" id="svg_12" fill="#231F20" d="m34,46c-6.065,0 -11,-4.935 -11,-11s4.935,-11 11,-11s11,4.935 11,11s-4.935,11 -11,11zm0,-18c-3.859,0 -7,3.141 -7,7s3.141,7 7,7s7,-3.141 7,-7s-3.141,-7 -7,-7z"/>
  <path id="svg_14" fill="#FFFFFF" d="m34,43.5c-5.79,0 -10.5,-4.71 -10.5,-10.5s4.71,-10.5 10.5,-10.5s10.5,4.71 10.5,10.5s-4.71,10.5 -10.5,10.5zm0,-18c-4.136,0 -7.5,3.364 -7.5,7.5s3.364,7.5 7.5,7.5s7.5,-3.364 7.5,-7.5s-3.364,-7.5 -7.5,-7.5z"/>
 </g>
</svg>