<svg width="64" height="64" xmlns="http://www.w3.org/2000/svg">

 <g>
  <title>background</title>
  <rect fill="none" id="canvas_background" height="402" width="582" y="-1" x="-1"/>
 </g>
 <g>
  <title>Layer 1</title>
  <path opacity="0.2" id="svg_4" fill="#231F20" d="m49.899,46.243l-14.142,-14.143c-1.031,-1.031 -2.481,-1.367 -3.799,-1.037l-8.093,-7.993l-3.037,-5.898l-5.911,-3.044l-2.867,2.867l3.044,5.911l5.911,3.044l0.008,-0.008l8.066,7.966c-0.351,1.331 -0.021,2.805 1.022,3.849l14.142,14.142c1.562,1.562 4.095,1.562 5.657,0c1.562,-1.562 1.562,-4.094 -0.001,-5.656z"/>
  <polygon id="svg_6" points="34.499,37.263 18.397,21.359 21.331,18.567 37.433,34.471   " fill="#4F5D73"/>
  <path id="svg_8" fill="#F5CF87" d="m49.899,49.899c-1.562,1.562 -4.095,1.562 -5.657,0l-14.141,-14.142c-1.562,-1.562 -1.562,-4.095 0,-5.657l0,0c1.562,-1.562 4.095,-1.562 5.657,0l14.142,14.142c1.562,1.563 1.562,4.095 -0.001,5.657l0,0z"/>
  <path opacity="0.2" id="svg_10" fill="#231F20" d="m53.304,18.353l-6.476,6.476c-1.562,1.562 -4.095,1.562 -5.657,0c-1.562,-1.562 -1.562,-4.095 0,-5.657l6.476,-6.476c-1.131,-0.444 -2.358,-0.696 -3.647,-0.696c-5.523,0 -10,4.477 -10,10c0,1.289 0.252,2.516 0.696,3.647l-11.049,11.049c-1.131,-0.444 -2.358,-0.696 -3.647,-0.696c-5.523,0 -10,4.477 -10,10c0,1.289 0.252,2.516 0.696,3.647l6.476,-6.476c1.562,-1.562 4.095,-1.562 5.657,0c1.562,1.562 1.562,4.095 0,5.657l-6.476,6.476c1.131,0.444 2.358,0.696 3.647,0.696c5.523,0 10,-4.477 10,-10c0,-1.289 -0.252,-2.516 -0.696,-3.647l11.049,-11.049c1.131,0.444 2.358,0.696 3.647,0.696c5.523,0 10,-4.477 10,-10c0,-1.289 -0.252,-2.516 -0.696,-3.647z"/>
  <rect id="svg_12" y="28" x="23.43" width="17.14" transform="matrix(0.7071,-0.7071,0.7071,0.7071,-13.2548,32) " height="8" fill="#FFFFFF"/>
  <polygon id="svg_14" points="21.005,23.95 15.094,20.906 12.05,14.995 14.917,12.128 20.828,15.172 23.872,21.083   " fill="#4F5D73"/>
  <path id="svg_17" fill="#FFFFFF" d="m46.828,22.828c-1.562,1.562 -4.095,1.562 -5.657,0c-1.562,-1.562 -1.562,-4.095 0,-5.657l6.476,-6.476c-1.131,-0.443 -2.358,-0.695 -3.647,-0.695c-5.523,0 -10,4.477 -10,10c0,5.523 4.477,10 10,10s10,-4.477 10,-10c0,-1.289 -0.252,-2.516 -0.696,-3.647l-6.476,6.475z"/>
  <path id="svg_20" fill="#FFFFFF" d="m17.172,41.172c1.562,-1.562 4.095,-1.562 5.657,0c1.562,1.562 1.562,4.095 0,5.657l-6.476,6.476c1.131,0.443 2.358,0.695 3.647,0.695c5.523,0 10,-4.477 10,-10c0,-5.523 -4.477,-10 -10,-10s-10,4.477 -10,10c0,1.289 0.252,2.516 0.696,3.647l6.476,-6.475z"/>
 </g>
</svg>