<svg width="64" height="64" xmlns="http://www.w3.org/2000/svg">

 <g>
  <title>background</title>
  <rect fill="none" id="canvas_background" height="402" width="582" y="-1" x="-1"/>
 </g>
 <g>
  <title>Layer 1</title>
  <path opacity="0.2" id="svg_4" fill="#231F20" d="m44,52c0,1.105 -0.895,2 -2,2l-20,0c-1.105,0 -2,-0.895 -2,-2l0,0c0,-1.105 0.895,-2 2,-2l20,0c1.105,0 2,0.895 2,2l0,0z"/>
  <path id="svg_6" fill="#FFFFFF" d="m44,50c0,1.105 -0.895,2 -2,2l-20,0c-1.105,0 -2,-0.895 -2,-2l0,0c0,-1.105 0.895,-2 2,-2l20,0c1.105,0 2,0.895 2,2l0,0z"/>
  <path id="svg_8" fill="#E0E0D1" d="m37,42c0,0 -1,6 3,6c0,0 -20,0 -16,0s3,-6 3,-6l10,0z"/>
  <path opacity="0.2" id="svg_11" fill="#231F20" d="m52,40c0,2.209 -1.791,4 -4,4l-32,0c-2.209,0 -4,-1.791 -4,-4l0,-22c0,-2.209 1.791,-4 4,-4l32,0c2.209,0 4,1.791 4,4l0,22z"/>
  <path id="svg_14" fill="#4F5D73" d="m16,40.5c-1.379,0 -2.5,-1.121 -2.5,-2.5l0,-22c0,-1.379 1.121,-2.5 2.5,-2.5l32,0c1.379,0 2.5,1.121 2.5,2.5l0,22c0,1.379 -1.121,2.5 -2.5,2.5l-32,0z"/>
  <path id="svg_16" fill="#FFFFFF" d="m48,15c0.551,0 1,0.449 1,1l0,22c0,0.551 -0.449,1 -1,1l-32,0c-0.551,0 -1,-0.449 -1,-1l0,-22c0,-0.551 0.449,-1 1,-1l32,0m0,-3l-32,0c-2.209,0 -4,1.791 -4,4l0,22c0,2.209 1.791,4 4,4l32,0c2.209,0 4,-1.791 4,-4l0,-22c0,-2.209 -1.791,-4 -4,-4l0,0z"/>
  <polygon opacity="0.2" id="svg_18" points="50.001,39.879 50.001,13.88 26.25,13.88 41.203,39.879   " fill="#FFFFFF"/>
 </g>
</svg>