<?xml version="1.0" encoding="utf-8"?>
<!-- Generator: Adobe Illustrator 22.1.0, SVG Export Plug-In . SVG Version: 6.00 Build 0)  -->
<svg version="1.1" id="Layer_1" xmlns="http://www.w3.org/2000/svg" xmlns:xlink="http://www.w3.org/1999/xlink" x="0px" y="0px"
	 viewBox="0 0 250 250" style="enable-background:new 0 0 250 250;" xml:space="preserve">
<style type="text/css">
	.st0{fill:#FFFFFF;stroke:#000000;stroke-width:5;stroke-miterlimit:10;}
	.st1{fill:#FFFFFF;}
	.st2{fill:#080707;stroke:#000000;stroke-miterlimit:10;}
	.st3{fill:#FFFFFF;stroke:#000000;stroke-width:3;stroke-miterlimit:10;}
	.st4{fill:none;stroke:#000000;stroke-width:2;stroke-linecap:round;stroke-linejoin:round;stroke-miterlimit:10;}
	.st5{fill:none;stroke:#000000;stroke-width:4;stroke-linecap:round;stroke-linejoin:round;stroke-miterlimit:10;}
	.st6{fill:none;stroke:#000000;stroke-width:6;stroke-linecap:round;stroke-linejoin:round;stroke-miterlimit:10;}
</style>
<path class="st0" d="M217,107c-17.2-50.5-72.1-77.4-122.6-60.2C44,64,17,118.9,34.3,169.4s72.1,77.4,122.6,60.2
	C207.3,212.3,234.2,157.4,217,107z M151.4,215.6c-42.8,14.6-89.3-8.2-103.9-51c-14.6-42.8,8.2-89.3,51-103.9
	c42.8-14.6,89.3,8.2,103.9,51C217.1,154.5,194.2,201,151.4,215.6z"/>
<ellipse transform="matrix(0.9963 -8.637158e-02 8.637158e-02 0.9963 -11.9799 11.51)" class="st1" cx="127" cy="144.2" rx="57.7" ry="53.7"/>
<path class="st0" d="M120.1,95.4c3.6,7,7.4,12.3,10.4,15.8c6.8,8.2,19.8,18.1,20.6,18.8c13.4,10.2,20,15.2,23,23.3
	c0.9,2.3,4.9,13.1,0.3,20c-1.3,2-4.5,5.5-4.3,10.3c0,1.2,0.3,2.1,0.5,2.7c1,3.2,1.4,6,1.5,8c0.3,4.5-0.4,7.3-0.6,8.1c0,0,0,0,0,0
	c2.3-1.5,5.3-4,8.2-7.6c3.3-4.2,5.1-8.3,6-11.1c0.9,1.3,2.4,4.1,2.6,7.9c0.2,2.8-0.4,5.1-0.8,6.5c1.6-1.7,3.8-4.3,5.6-7.9
	c0,0,1.9-4.1,3.3-8.9c2.4-8.2-0.5-21.2-0.2-44.2c0.4-35.6-15.7-70.6-53.5-74.2c-13-1.3-29.8-5.3-51.7,3.9
	c-23.1,9.7-34.1,27.1-34.5,41.6c-0.4,14.5,6.5,22,3.6,33.5c-2.9,11.5-6.9,38.3,2.1,50.1c8.9,11.7,19.1,15.1,19.1,15.1
	s-4.4-7.9-5.6-11.1c-0.1-0.3-0.2-0.6-0.3-0.9c-0.6-2.3,10.6,4,15.7,5.7c5.1,1.7,5.1,1.7,5.1,1.7c-0.3-2.8-1-6.9-3.1-11.5
	c-3.1-6.8-7.3-10.4-9.9-13.1c-6.8-7.3-13.1-21.3-10.5-31.5c3.7-14.4,24.5-19,34.7-32.8c3.8-5.1,8.2-11.4,8.2-11.4
	C117.5,99.3,119.1,96.9,120.1,95.4z"/>
<path class="st2" d="M128.7,160.4c0,1.2-4.7,3.8-6.6,3.6c-1.9-0.1-5.8-2.9-5.6-4c0.1-1.1,2.8-2,6.2-1.9S128.7,159.2,128.7,160.4z"/>
<path class="st3" d="M141.8,91.1c8.7-11.4,11.8-21.4,13.1-28.2c0,0,0.9-5,1.3-29.7l3.5-5.4c0,0,6.6,19.4,7,28.1c0,0.3,0,0.6,0,0.9
	c0,1.4,0.1,2.1,0.2,2.1c0.3,0.1,1.9-4.9,5.2-16.7c3.8-2.9,7.6-6.1,11.5-9.6c6.4-5.7,12.1-11.4,17.2-16.8c0.4,3,0.8,8.2-1.3,14
	c-1.2,3.3-2.8,5.6-4.5,8c-2.4,3.3-6.3,8-12.5,12.7c-1.7,1.7-3.6,3.8-5.5,6.4c-2.8,4-4.5,7.7-5.6,10.8c0,0-0.7,1.8,12.2-3
	s13.4-6.7,13.4-6.7s-14.5,22.4-36.3,22.8L141.8,91.1z"/>
<path class="st3" d="M99.2,89.7c2,0.3-15.1-13.4-16.9-25.6C80.5,52,81,43.4,81,43.4c-5.5-1.9-13.1-5.3-21.1-11.1
	C51.7,26.4,46.2,20,42.6,15.3c0,0,0.7,15,7.4,24.3c5.2,7.3,11.7,11.3,15.5,13.3c0,0-20.1,4.7-31.6-1.5c-3.2-1.7-6-4.7-6-4.7
	c2.3,5.1,7.7,14.8,18.3,18.9c1.2,0.5,2.5,0.8,3.7,1.1c0,0-6,9.7-12.7,11.3c-6.8,1.6-7.3,0.5-7.3,0.5s15.4,7.1,30.6-6.4
	c7.7-6.8,8.1-5.1,8.1-5.1S76,85.9,99.2,89.7z"/>
<path class="st4" d="M71.5,130.4c-0.2,4.6,2.7,15,6.4,21.7c1.2,2.1,15.3,5.4,28.8,5.4c5.4,0,6.5-14.8,6.6-16"/>
<path class="st5" d="M175.4,131.2c0,0-2.2-0.7-6.2-0.8c-4-0.1-15,0.2-24.4,1.9c-9.4,1.7-10.9,6.6-12.4,8.8"/>
<path class="st4" d="M174.1,130.4c0.2,4.6-2.7,15-6.4,21.7c-1.2,2.1-15.3,5.4-28.8,5.4c-5.4,0-6.5-14.8-6.6-16"/>
<path id="Chin_1_" class="st6" d="M93.7,190c3.8,4,5,5.4,29.5,6.4c29.6,1.2,41.6-9.9,44.9-12.9"/>
<path class="st5" d="M69.8,130.5c0,0,2.2-0.7,6.2-0.8c4-0.1,15,0.2,24.4,1.9c9.4,1.7,10.9,6.6,12.4,8.8c0,0,11.1-6.4,19.6,0.8"/>
</svg>
